<svg width="16" height="18" viewBox="0 0 16 18" fill="none" xmlns="http://www.w3.org/2000/svg">
<path d="M10.5714 15.1875H11.1429C11.2186 15.1875 11.2913 15.1579 11.3449 15.1051C11.3985 15.0524 11.4286 14.9808 11.4286 14.9062V5.34375C11.4286 5.26916 11.3985 5.19762 11.3449 5.14488C11.2913 5.09213 11.2186 5.0625 11.1429 5.0625H10.5714C10.4957 5.0625 10.423 5.09213 10.3694 5.14488C10.3158 5.19762 10.2857 5.26916 10.2857 5.34375V14.9062C10.2857 14.9808 10.3158 15.0524 10.3694 15.1051C10.423 15.1579 10.4957 15.1875 10.5714 15.1875ZM4.85714 15.1875H5.42857C5.50435 15.1875 5.57702 15.1579 5.6306 15.1051C5.68418 15.0524 5.71429 14.9808 5.71429 14.9062V5.34375C5.71429 5.26916 5.68418 5.19762 5.6306 5.14488C5.57702 5.09213 5.50435 5.0625 5.42857 5.0625H4.85714C4.78137 5.0625 4.70869 5.09213 4.65511 5.14488C4.60153 5.19762 4.57143 5.26916 4.57143 5.34375V14.9062C4.57143 14.9808 4.60153 15.0524 4.65511 15.1051C4.70869 15.1579 4.78137 15.1875 4.85714 15.1875ZM15.7143 2.25H12L10.8 0.675C10.6403 0.465419 10.4333 0.295313 10.1952 0.178154C9.95719 0.0609948 9.69471 0 9.42857 0L6.57143 0C6.30529 0 6.04282 0.0609948 5.80478 0.178154C5.56674 0.295313 5.35968 0.465419 5.2 0.675L4 2.25H0.285714C0.209938 2.25 0.137266 2.27963 0.0836838 2.33238C0.030102 2.38512 0 2.45666 0 2.53125L0 3.09375C0 3.16834 0.030102 3.23988 0.0836838 3.29262C0.137266 3.34537 0.209938 3.375 0.285714 3.375H1.14286V16.3125C1.14286 16.7601 1.32347 17.1893 1.64496 17.5057C1.96645 17.8222 2.40249 18 2.85714 18H13.1429C13.5975 18 14.0336 17.8222 14.355 17.5057C14.6765 17.1893 14.8571 16.7601 14.8571 16.3125V3.375H15.7143C15.7901 3.375 15.8627 3.34537 15.9163 3.29262C15.9699 3.23988 16 3.16834 16 3.09375V2.53125C16 2.45666 15.9699 2.38512 15.9163 2.33238C15.8627 2.27963 15.7901 2.25 15.7143 2.25ZM6.11429 1.35C6.1677 1.28034 6.23676 1.22379 6.31607 1.18475C6.39537 1.14572 6.48277 1.12527 6.57143 1.125H9.42857C9.51723 1.12527 9.60463 1.14572 9.68394 1.18475C9.76324 1.22379 9.8323 1.28034 9.88571 1.35L10.5714 2.25H5.42857L6.11429 1.35ZM13.7143 16.3125C13.7143 16.4617 13.6541 16.6048 13.5469 16.7102C13.4398 16.8157 13.2944 16.875 13.1429 16.875H2.85714C2.70559 16.875 2.56025 16.8157 2.45308 16.7102C2.34592 16.6048 2.28571 16.4617 2.28571 16.3125V3.375H13.7143V16.3125ZM7.71429 15.1875H8.28572C8.36149 15.1875 8.43416 15.1579 8.48775 15.1051C8.54133 15.0524 8.57143 14.9808 8.57143 14.9062V5.34375C8.57143 5.26916 8.54133 5.19762 8.48775 5.14488C8.43416 5.09213 8.36149 5.0625 8.28572 5.0625H7.71429C7.63851 5.0625 7.56584 5.09213 7.51226 5.14488C7.45867 5.19762 7.42857 5.26916 7.42857 5.34375V14.9062C7.42857 14.9808 7.45867 15.0524 7.51226 15.1051C7.56584 15.1579 7.63851 15.1875 7.71429 15.1875Z" fill="black"/>
</svg>
