<svg width="18" height="18" viewBox="0 0 18 18" fill="none" xmlns="http://www.w3.org/2000/svg">
<path d="M17.341 1.97702L16.023 0.659008C15.1443 -0.219652 13.7197 -0.219687 12.841 0.659008L0.451316 13.0486L0.00528893 17.0629C-0.0544064 17.6003 0.399742 18.0544 0.93707 17.9947L4.95135 17.5487L17.341 5.15901C18.2196 4.28031 18.2196 2.85568 17.341 1.97702ZM5.78972 12.2102C6.00942 12.4299 6.36555 12.4298 6.5852 12.2102L12.9375 5.85795L13.9942 6.91471L6.11717 14.7918V13.5703H4.42967V11.8828H3.20816L11.0852 4.00571L12.142 5.06247L5.78972 11.4147C5.57003 11.6344 5.57003 11.9905 5.78972 12.2102ZM4.43484 16.4741L2.36079 16.7046L1.29538 15.6392L1.52583 13.5651L2.22379 12.8672H3.44529V14.5547H5.13279V15.7762L4.43484 16.4741ZM16.5455 4.36349L14.7897 6.11923L11.8807 3.21023L13.6365 1.45449C14.0761 1.01486 14.7878 1.01479 15.2275 1.45449L16.5455 2.7725C16.9851 3.21216 16.9852 3.92376 16.5455 4.36349Z" fill="black"/>
</svg>
